<?xml version="1.0" encoding="iso-8859-1"?>
<!-- Uploaded to: SVG Repo, www.svgrepo.com, Generator: SVG Repo Mixer Tools -->
<svg fill="#000000" version="1.1" id="Layer_1" xmlns="http://www.w3.org/2000/svg" xmlns:xlink="http://www.w3.org/1999/xlink" 
	 viewBox="0 0 512 512" xml:space="preserve">
<g>
	<g>
		
			<rect x="129.177" y="254.498" transform="matrix(0.7071 -0.7071 0.7071 0.7071 -161.9856 228.3968)" width="131.06" height="110.469"/>
	</g>
</g>
<g>
	<g>
		<path d="M92.531,347.45l-71.281,42.037L0,504.437l114.951-21.249l42.037-71.282L92.531,347.45z M80.187,447.865
			c-6.519,6.52-17.091,6.52-23.611,0s-6.52-17.091,0-23.611c6.52-6.52,17.091-6.52,23.611,0
			C86.707,430.774,86.707,441.345,80.187,447.865z"/>
	</g>
</g>
<g>
	<g>
		<path d="M468.181,128.393l9.648-9.648c25.401-25.401,25.401-66.73,0-92.131c-25.401-25.401-66.73-25.401-92.131,0L218.591,193.718
			l92.132,92.132l133.389-133.389l19.751,19.751L300.806,335.269l24.068,24.068L512,172.212L468.181,128.393z"/>
	</g>
</g>
</svg>